<?xml version="1.0" encoding="UTF-8"?>
<!DOCTYPE svg  PUBLIC '-//W3C//DTD SVG 1.1//EN'  'http://www.w3.org/Graphics/SVG/1.1/DTD/svg11.dtd'>
<svg enable-background="new 0 0 648 504" version="1.1" viewBox="0 0 648 504" xml:space="preserve" xmlns="http://www.w3.org/2000/svg" fill="#000">
<g clip-rule="evenodd" fill-rule="evenodd">
	<path d="m325.99 328.35c-5.267-0.765-10.569-1.339-15.793-2.329-19.027-3.603-36.629-10.548-51.994-22.611-10.828-8.502-19.737-18.642-25.212-31.338-1.846-4.28-2.621-9.177-3.085-13.871-1.786-18.081 2.829-34.557 14.012-48.857 10.256-13.115 23.34-22.393 39.055-28.414 21.361-8.186 43.472-9.88 65.889-8.785 16.988 0.831 33.393 5.014 48.88 12.197 9.999 4.638 18.342 11.625 25.798 19.661 8.19 8.827 14.148 18.976 16.989 30.726 2.996 12.391 2.855 24.931-0.919 37.047-2.604 8.359-8.262 15.239-14.254 21.588-17.978 19.049-40.672 28.847-66.043 33.239-4.208 0.728-8.465 1.172-12.699 1.747h-20.624zm11.837-35.399c-6.379-0.813-11.838-1.59-17.316-2.187-6.394-0.696-10.353-4.927-14.045-9.502-3.111-3.854-3.354-8.063-1.377-12.621 1.974-4.548 3.825-9.172 5.327-13.892 0.754-2.37 1.242-5.15 0.77-7.531-3.159-15.949-10.817-29.405-23.13-40.125-3.532-3.075-6.929-6.163-12.206-5.988-11.295 0.373-19.869 5.768-26.368 14.455-7.5 10.025-11.642 21.435-11.619 34.087 0.012 7.15 0.367 14.234 3.607 20.94 9.692 20.059 25.853 33.026 45.789 41.62 22.493 9.695 46.017 11.979 70.113 8.04 25.289-4.134 47.313-14.56 64.132-34.479 4.889-5.79 9.13-12.117 11.024-19.55 2.216-8.695 2.056-17.593 0.749-26.421-1.299-8.788-5.81-16.273-10.133-23.826-4.162-7.269-10.002-12.401-18.025-15.006-3.8-1.233-7.755-2.401-11.331-0.082-5.172 3.356-10.701 6.567-14.867 10.982-8.195 8.685-13.99 18.982-17.189 30.667-1.396 5.1-1.41 9.921 0.63 14.792 1.586 3.784 3.21 7.564 4.522 11.446 0.746 2.207 1.734 4.846 1.167 6.888-1.886 6.789-6.353 11.961-13.064 14.069-5.735 1.8-11.884 2.282-17.16 3.224zm-14.815-18.707c0.61 5.033 3.859 7.68 7.438 9.93 4.488 2.822 7.083 2.825 10.912-0.406 2.438-2.057 4.616-4.572 6.352-7.246 0.79-1.219 0.92-3.791 0.145-4.925-2.165-3.165-4.89-5.965-7.533-8.777-1.63-1.734-3.721-1.722-5.813-0.78-4.467 2.012-7.962 5.163-10.536 9.294-0.577 0.923-0.714 2.118-0.965 2.91z"/>
	<path d="m397.77 251.52c-0.086 4.104-1.384 7.464-5.018 9.716-3.667 2.273-8.388 1.479-11.005-1.942-3.204-4.189-3.108-11.153 0.291-15.151 2.335-2.746 5.459-3.392 8.824-2.737 3.127 0.609 5.331 2.519 6.222 5.633 0.412 1.44 0.468 2.984 0.686 4.481z"/>
	<path d="m293.39 251.54c0.257 3.88-1.375 6.85-4.364 9.171-3.38 2.624-8.122 2.325-10.938-0.678-3.867-4.123-3.989-11.878-0.169-16.064 2.6-2.849 5.961-3.364 9.473-2.364 3.319 0.945 5.225 3.394 5.799 6.797 0.172 1.029 0.138 2.092 0.199 3.138z"/>
	<path d="m338.06 281.1c0.159-1.279 0.364-2.555 0.469-3.839 0.231-2.838 0.355-5.687 0.647-8.518 0.088-0.848 0.588-1.653 0.899-2.479 0.742 0.515 1.704 0.878 2.183 1.573 1.016 1.477 1.907 3.072 2.59 4.727 0.321 0.778 0.412 2.091-0.033 2.669-1.747 2.271-3.749 4.348-5.656 6.497-0.367-0.209-0.733-0.419-1.099-0.63z"/>
</g>
</svg>
